{
    "asset" : {
        "generator" : "Khronos glTF Blender I/O v3.2.43",
        "version" : "2.0"
    },
    "scene" : 0,
    "scenes" : [
        {
            "name" : "Scene",
            "nodes" : [
                0
            ]
        }
    ],
    "nodes" : [
        {
            "mesh" : 0,
            "name" : "Island",
            "rotation" : [
                0,
                0,
                0.9648129940032959,
                0.2629372775554657
            ],
            "scale" : [
                0.46253490447998047,
                0.42287108302116394,
                0.4718056917190552
            ]
        }
    ],
    "materials" : [
        {
            "doubleSided" : true,
            "name" : "FloatingIsland",
            "pbrMetallicRoughness" : {
                "baseColorTexture" : {
                    "index" : 0
                },
                "metallicFactor" : 0
            }
        }
    ],
    "meshes" : [
        {
            "name" : "Mesh.003",
            "primitives" : [
                {
                    "attributes" : {
                        "POSITION" : 0,
                        "NORMAL" : 1,
                        "TEXCOORD_0" : 2
                    },
                    "indices" : 3,
                    "material" : 0
                }
            ]
        }
    ],
    "textures" : [
        {
            "sampler" : 0,
            "source" : 0
        }
    ],
    "images" : [
        {
            "bufferView" : 4,
            "mimeType" : "image/png",
            "name" : "BaseColors"
        }
    ],
    "accessors" : [
        {
            "bufferView" : 0,
            "componentType" : 5126,
            "count" : 5822,
            "max" : [
                14.302711486816406,
                18.32718276977539,
                7.388648509979248
            ],
            "min" : [
                -16.124732971191406,
                -26.831512451171875,
                -4.327725410461426
            ],
            "type" : "VEC3"
        },
        {
            "bufferView" : 1,
            "componentType" : 5126,
            "count" : 5822,
            "type" : "VEC3"
        },
        {
            "bufferView" : 2,
            "componentType" : 5126,
            "count" : 5822,
            "type" : "VEC2"
        },
        {
            "bufferView" : 3,
            "componentType" : 5123,
            "count" : 9450,
            "type" : "SCALAR"
        }
    ],
    "bufferViews" : [
        {
            "buffer" : 0,
            "byteLength" : 69864,
            "byteOffset" : 0
        },
        {
            "buffer" : 0,
            "byteLength" : 69864,
            "byteOffset" : 69864
        },
        {
            "buffer" : 0,
            "byteLength" : 46576,
            "byteOffset" : 139728
        },
        {
            "buffer" : 0,
            "byteLength" : 18900,
            "byteOffset" : 186304
        },
        {
            "buffer" : 0,
            "byteLength" : 233,
            "byteOffset" : 205204
        }
    ],
    "samplers" : [
        {
            "magFilter" : 9728,
            "minFilter" : 9984
        }
    ],
    "buffers" : [
        {
            "byteLength" : 205440,
            "uri" : "data:application/octet-stream;base64,"
        }
    ]
}
