{
    "asset" : {
        "generator" : "Khronos glTF Blender I/O v3.2.43",
        "version" : "2.0"
    },
    "scene" : 0,
    "scenes" : [
        {
            "name" : "Scene",
            "nodes" : [
                0
            ]
        }
    ],
    "nodes" : [
        {
            "mesh" : 0,
            "name" : "Cylinder",
            "translation" : [
                0,
                1,
                0
            ]
        }
    ],
    "meshes" : [
        {
            "name" : "Cylinder.001",
            "primitives" : [
                {
                    "attributes" : {
                        "POSITION" : 0,
                        "NORMAL" : 1,
                        "TEXCOORD_0" : 2
                    },
                    "indices" : 3
                }
            ]
        }
    ],
    "accessors" : [
        {
            "bufferView" : 0,
            "componentType" : 5126,
            "count" : 83,
            "max" : [
                0.7064802050590515,
                9.011034965515137,
                0.7064802050590515
            ],
            "min" : [
                -0.7064802050590515,
                -0.9399076104164124,
                -0.7064802050590515
            ],
            "type" : "VEC3"
        },
        {
            "bufferView" : 1,
            "componentType" : 5126,
            "count" : 83,
            "type" : "VEC3"
        },
        {
            "bufferView" : 2,
            "componentType" : 5126,
            "count" : 83,
            "type" : "VEC2"
        },
        {
            "bufferView" : 3,
            "componentType" : 5123,
            "count" : 276,
            "type" : "SCALAR"
        }
    ],
    "bufferViews" : [
        {
            "buffer" : 0,
            "byteLength" : 996,
            "byteOffset" : 0
        },
        {
            "buffer" : 0,
            "byteLength" : 996,
            "byteOffset" : 996
        },
        {
            "buffer" : 0,
            "byteLength" : 664,
            "byteOffset" : 1992
        },
        {
            "buffer" : 0,
            "byteLength" : 552,
            "byteOffset" : 2656
        }
    ],
    "buffers" : [
        {
            "byteLength" : 3208,
            "uri" : "data:application/octet-stream;base64,"
        }
    ]
}
