{
    "asset" : {
        "generator" : "Khronos glTF Blender I/O v3.2.43",
        "version" : "2.0"
    },
    "scene" : 0,
    "scenes" : [
        {
            "name" : "Scene",
            "nodes" : [
                0,
                1,
                2,
                3,
                4,
                5
            ]
        }
    ],
    "nodes" : [
        {
            "mesh" : 0,
            "name" : "Cylinder",
            "translation" : [
                0,
                1,
                0
            ]
        },
        {
            "name" : "Plane.003",
            "rotation" : [
                0.5244552493095398,
                0.47428545355796814,
                -0.4742854833602905,
                0.5244552493095398
            ],
            "scale" : [
                2.081594944000244,
                2.081594944000244,
                2.081594944000244
            ],
            "translation" : [
                0.0009740995592437685,
                4.786255359649658,
                0.0009737014188431203
            ]
        },
        {
            "mesh" : 1,
            "name" : "Plane.001",
            "rotation" : [
                0.5244552493095398,
                0.47428545355796814,
                -0.4742854833602905,
                0.5244552493095398
            ],
            "scale" : [
                2.081594944000244,
                2.081594944000244,
                2.081594944000244
            ],
            "translation" : [
                0.0009740995592437685,
                4.786255359649658,
                0.0009737014188431203
            ]
        },
        {
            "mesh" : 2,
            "name" : "Plane.002",
            "rotation" : [
                0.5244552493095398,
                0.47428545355796814,
                -0.4742854833602905,
                0.5244552493095398
            ],
            "scale" : [
                2.081594944000244,
                2.081594944000244,
                2.081594944000244
            ],
            "translation" : [
                0.0009740995592437685,
                4.786255359649658,
                0.0009737014188431203
            ]
        },
        {
            "mesh" : 3,
            "name" : "Plane.004",
            "rotation" : [
                0.5244552493095398,
                0.47428545355796814,
                -0.4742854833602905,
                0.5244552493095398
            ],
            "scale" : [
                2.081594944000244,
                2.081594944000244,
                2.081594944000244
            ],
            "translation" : [
                0.0009740995592437685,
                4.786255359649658,
                0.0009737014188431203
            ]
        },
        {
            "mesh" : 4,
            "name" : "Plane.005",
            "rotation" : [
                0.5244552493095398,
                0.47428545355796814,
                -0.4742854833602905,
                0.5244552493095398
            ],
            "scale" : [
                2.081594944000244,
                2.081594944000244,
                2.081594944000244
            ],
            "translation" : [
                0.0009740995592437685,
                4.786255359649658,
                0.0009737014188431203
            ]
        }
    ],
    "meshes" : [
        {
            "name" : "Cylinder.001",
            "primitives" : [
                {
                    "attributes" : {
                        "POSITION" : 0,
                        "NORMAL" : 1,
                        "TEXCOORD_0" : 2
                    },
                    "indices" : 3
                }
            ]
        },
        {
            "name" : "Plane.001",
            "primitives" : [
                {
                    "attributes" : {
                        "POSITION" : 4,
                        "NORMAL" : 5,
                        "TEXCOORD_0" : 6
                    },
                    "indices" : 7
                }
            ]
        },
        {
            "name" : "Plane.002",
            "primitives" : [
                {
                    "attributes" : {
                        "POSITION" : 8,
                        "NORMAL" : 9,
                        "TEXCOORD_0" : 10
                    },
                    "indices" : 11
                }
            ]
        },
        {
            "name" : "Plane.003",
            "primitives" : [
                {
                    "attributes" : {
                        "POSITION" : 12,
                        "NORMAL" : 13,
                        "TEXCOORD_0" : 14
                    },
                    "indices" : 15
                }
            ]
        },
        {
            "name" : "Plane.005",
            "primitives" : [
                {
                    "attributes" : {
                        "POSITION" : 16,
                        "NORMAL" : 17,
                        "TEXCOORD_0" : 18
                    },
                    "indices" : 19
                }
            ]
        }
    ],
    "accessors" : [
        {
            "bufferView" : 0,
            "componentType" : 5126,
            "count" : 83,
            "max" : [
                0.7064802050590515,
                9.011034965515137,
                0.7064802050590515
            ],
            "min" : [
                -0.7064802050590515,
                -0.9399076104164124,
                -0.7064802050590515
            ],
            "type" : "VEC3"
        },
        {
            "bufferView" : 1,
            "componentType" : 5126,
            "count" : 83,
            "type" : "VEC3"
        },
        {
            "bufferView" : 2,
            "componentType" : 5126,
            "count" : 83,
            "type" : "VEC2"
        },
        {
            "bufferView" : 3,
            "componentType" : 5123,
            "count" : 276,
            "type" : "SCALAR"
        },
        {
            "bufferView" : 4,
            "componentType" : 5126,
            "count" : 49,
            "max" : [
                0.5700439810752869,
                0.5685329437255859,
                -1.006241798400879
            ],
            "min" : [
                -0.5689367651939392,
                -0.5704479217529297,
                -2.521358013153076
            ],
            "type" : "VEC3"
        },
        {
            "bufferView" : 5,
            "componentType" : 5126,
            "count" : 49,
            "type" : "VEC3"
        },
        {
            "bufferView" : 6,
            "componentType" : 5126,
            "count" : 49,
            "type" : "VEC2"
        },
        {
            "bufferView" : 7,
            "componentType" : 5123,
            "count" : 120,
            "type" : "SCALAR"
        },
        {
            "bufferView" : 8,
            "componentType" : 5126,
            "count" : 113,
            "max" : [
                0.5002891421318054,
                0.49896368384361267,
                -1.939138650894165
            ],
            "min" : [
                -0.4988844394683838,
                -0.5002099275588989,
                -3.1852543354034424
            ],
            "type" : "VEC3"
        },
        {
            "bufferView" : 9,
            "componentType" : 5126,
            "count" : 113,
            "type" : "VEC3"
        },
        {
            "bufferView" : 10,
            "componentType" : 5126,
            "count" : 113,
            "type" : "VEC2"
        },
        {
            "bufferView" : 11,
            "componentType" : 5123,
            "count" : 264,
            "type" : "SCALAR"
        },
        {
            "bufferView" : 12,
            "componentType" : 5126,
            "count" : 49,
            "max" : [
                0.8130080699920654,
                0.8108546137809753,
                0.2301502227783203
            ],
            "min" : [
                -0.8105271458625793,
                -0.812680721282959,
                -1.8016095161437988
            ],
            "type" : "VEC3"
        },
        {
            "bufferView" : 13,
            "componentType" : 5126,
            "count" : 49,
            "type" : "VEC3"
        },
        {
            "bufferView" : 14,
            "componentType" : 5126,
            "count" : 49,
            "type" : "VEC2"
        },
        {
            "bufferView" : 15,
            "componentType" : 5123,
            "count" : 120,
            "type" : "SCALAR"
        },
        {
            "bufferView" : 16,
            "componentType" : 5126,
            "count" : 89,
            "max" : [
                1.0465855598449707,
                1.0438127517700195,
                1.4948186874389648
            ],
            "min" : [
                -1.0438120365142822,
                -1.046584963798523,
                -1.0391435623168945
            ],
            "type" : "VEC3"
        },
        {
            "bufferView" : 17,
            "componentType" : 5126,
            "count" : 89,
            "type" : "VEC3"
        },
        {
            "bufferView" : 18,
            "componentType" : 5126,
            "count" : 89,
            "type" : "VEC2"
        },
        {
            "bufferView" : 19,
            "componentType" : 5123,
            "count" : 186,
            "type" : "SCALAR"
        }
    ],
    "bufferViews" : [
        {
            "buffer" : 0,
            "byteLength" : 996,
            "byteOffset" : 0
        },
        {
            "buffer" : 0,
            "byteLength" : 996,
            "byteOffset" : 996
        },
        {
            "buffer" : 0,
            "byteLength" : 664,
            "byteOffset" : 1992
        },
        {
            "buffer" : 0,
            "byteLength" : 552,
            "byteOffset" : 2656
        },
        {
            "buffer" : 0,
            "byteLength" : 588,
            "byteOffset" : 3208
        },
        {
            "buffer" : 0,
            "byteLength" : 588,
            "byteOffset" : 3796
        },
        {
            "buffer" : 0,
            "byteLength" : 392,
            "byteOffset" : 4384
        },
        {
            "buffer" : 0,
            "byteLength" : 240,
            "byteOffset" : 4776
        },
        {
            "buffer" : 0,
            "byteLength" : 1356,
            "byteOffset" : 5016
        },
        {
            "buffer" : 0,
            "byteLength" : 1356,
            "byteOffset" : 6372
        },
        {
            "buffer" : 0,
            "byteLength" : 904,
            "byteOffset" : 7728
        },
        {
            "buffer" : 0,
            "byteLength" : 528,
            "byteOffset" : 8632
        },
        {
            "buffer" : 0,
            "byteLength" : 588,
            "byteOffset" : 9160
        },
        {
            "buffer" : 0,
            "byteLength" : 588,
            "byteOffset" : 9748
        },
        {
            "buffer" : 0,
            "byteLength" : 392,
            "byteOffset" : 10336
        },
        {
            "buffer" : 0,
            "byteLength" : 240,
            "byteOffset" : 10728
        },
        {
            "buffer" : 0,
            "byteLength" : 1068,
            "byteOffset" : 10968
        },
        {
            "buffer" : 0,
            "byteLength" : 1068,
            "byteOffset" : 12036
        },
        {
            "buffer" : 0,
            "byteLength" : 712,
            "byteOffset" : 13104
        },
        {
            "buffer" : 0,
            "byteLength" : 372,
            "byteOffset" : 13816
        }
    ],
    "buffers" : [
        {
            "byteLength" : 14188,
            "uri" : "data:application/octet-stream;base64,"
        }
    ]
}
